<svg width="17" height="22" viewBox="0 0 17 22" fill="none" xmlns="http://www.w3.org/2000/svg">
<path d="M16.1502 8.0632H14.796V6.27489C14.796 2.82363 11.9612 0.0158691 8.47657 0.0158691C4.99196 0.0158691 2.15713 2.82363 2.15713 6.27489V8.0632H0.802966C0.55346 8.0632 0.351562 8.26317 0.351562 8.51029V19.6871C0.351562 20.6734 1.16131 21.4754 2.15713 21.4754H14.796C15.7918 21.4754 16.6016 20.6734 16.6016 19.6871V8.51029C16.6016 8.26317 16.3997 8.0632 16.1502 8.0632ZM9.82811 17.4024C9.8422 17.5286 9.80124 17.6552 9.71572 17.75C9.63019 17.8447 9.50764 17.8988 9.37938 17.8988H7.5738C7.44554 17.8988 7.32299 17.8447 7.23746 17.75C7.15194 17.6552 7.11093 17.5286 7.12507 17.4024L7.40982 14.8663C6.94742 14.5331 6.67104 14.0062 6.67104 13.4281C6.67104 12.4418 7.48079 11.6398 8.47661 11.6398C9.47243 11.6398 10.2822 12.4418 10.2822 13.4281C10.2822 14.0062 10.0058 14.5331 9.5434 14.8663L9.82811 17.4024ZM12.0877 8.0632H4.86547V6.27489C4.86547 4.30279 6.48543 2.69831 8.47657 2.69831C10.4677 2.69831 12.0877 4.30279 12.0877 6.27489V8.0632Z" fill="#D0021B"/>
</svg>
