<svg width="17" height="22" viewBox="0 0 17 22" fill="none" xmlns="http://www.w3.org/2000/svg">
<path d="M16.4197 8.33175H15.0655V5.54344C14.7454 2.21817 12.2307 0.284424 8.7461 0.284424C5.26149 0.284424 2.42666 3.09219 2.42666 6.54344V8.33175H1.0725C0.822992 8.33175 0.621094 8.53172 0.621094 8.77884V19.9557C0.621094 20.942 1.43084 21.744 2.42666 21.744H15.0656C16.0614 21.744 16.8711 20.942 16.8711 19.9557V8.77884C16.8711 8.53172 16.6692 8.33175 16.4197 8.33175ZM10.0976 17.671C10.1117 17.7971 10.0708 17.9238 9.98525 18.0185C9.89972 18.1132 9.77717 18.1674 9.64891 18.1674H7.84334C7.71507 18.1674 7.59252 18.1132 7.50699 18.0185C7.42147 17.9238 7.38046 17.7972 7.3946 17.671L7.67935 15.1348C7.21695 14.8017 6.94057 14.2747 6.94057 13.6966C6.94057 12.7104 7.75032 11.9083 8.74614 11.9083C9.74196 11.9083 10.5517 12.7103 10.5517 13.6966C10.5517 14.2747 10.2753 14.8017 9.81293 15.1348L10.0976 17.671ZM12.3572 8.33175H5.135V6.54344C5.135 4.57135 6.75497 2.96687 8.7461 2.96687C10.7372 2.96687 12.3572 3.57135 12.3572 5.54344H15.0655V8.33175H12.3572Z" fill="#D0021B"/>
</svg>
